<svg xmlns="http://www.w3.org/2000/svg" viewBox="0 0 140 90" fill="none" role="img" aria-label="Forget Me Not flower icon">
  <ellipse cx="80" cy="40" rx="5.5" ry="8" transform="rotate(0 80 40)" fill="#93c5fd" opacity="0.9" />
  <ellipse cx="75" cy="48.660254" rx="5.5" ry="8" transform="rotate(60 75 48.660254)" fill="#93c5fd" opacity="0.9" />
  <ellipse cx="65" cy="48.660254" rx="5.5" ry="8" transform="rotate(120 65 48.660254)" fill="#93c5fd" opacity="0.9" />
  <ellipse cx="60" cy="40" rx="5.5" ry="8" transform="rotate(180 60 40)" fill="#93c5fd" opacity="0.9" />
  <ellipse cx="65" cy="31.339746" rx="5.5" ry="8" transform="rotate(240 65 31.339746)" fill="#93c5fd" opacity="0.9" />
  <ellipse cx="75" cy="31.339746" rx="5.5" ry="8" transform="rotate(300 75 31.339746)" fill="#93c5fd" opacity="0.9" />
  <circle cx="70" cy="40" r="5.5" fill="#bfdbfe" />
  <circle cx="70" cy="40" r="2.5" fill="#fef9c3" />

  <ellipse cx="37" cy="54" rx="4" ry="6" transform="rotate(0 37 54)" fill="#a78bfa" opacity="0.75" />
  <ellipse cx="33.5" cy="60.062178" rx="4" ry="6" transform="rotate(60 33.5 60.062178)" fill="#a78bfa" opacity="0.75" />
  <ellipse cx="26.5" cy="60.062178" rx="4" ry="6" transform="rotate(120 26.5 60.062178)" fill="#a78bfa" opacity="0.75" />
  <ellipse cx="23" cy="54" rx="4" ry="6" transform="rotate(180 23 54)" fill="#a78bfa" opacity="0.75" />
  <ellipse cx="26.5" cy="47.937822" rx="4" ry="6" transform="rotate(240 26.5 47.937822)" fill="#a78bfa" opacity="0.75" />
  <ellipse cx="33.5" cy="47.937822" rx="4" ry="6" transform="rotate(300 33.5 47.937822)" fill="#a78bfa" opacity="0.75" />
  <circle cx="30" cy="54" r="4" fill="#c4b5fd" />
  <circle cx="30" cy="54" r="2" fill="#fef9c3" />

  <ellipse cx="117" cy="56" rx="4" ry="6" transform="rotate(0 117 56)" fill="#60a5fa" opacity="0.75" />
  <ellipse cx="113.5" cy="62.062178" rx="4" ry="6" transform="rotate(60 113.5 62.062178)" fill="#60a5fa" opacity="0.75" />
  <ellipse cx="106.5" cy="62.062178" rx="4" ry="6" transform="rotate(120 106.5 62.062178)" fill="#60a5fa" opacity="0.75" />
  <ellipse cx="103" cy="56" rx="4" ry="6" transform="rotate(180 103 56)" fill="#60a5fa" opacity="0.75" />
  <ellipse cx="106.5" cy="49.937822" rx="4" ry="6" transform="rotate(240 106.5 49.937822)" fill="#60a5fa" opacity="0.75" />
  <ellipse cx="113.5" cy="49.937822" rx="4" ry="6" transform="rotate(300 113.5 49.937822)" fill="#60a5fa" opacity="0.75" />
  <circle cx="110" cy="56" r="4" fill="#93c5fd" />
  <circle cx="110" cy="56" r="2" fill="#fef9c3" />

  <path d="M70 50 Q68 66 65 76" stroke="#4ade80" stroke-width="1.5" stroke-linecap="round" opacity="0.5" />
  <path d="M30 61 Q28 71 26 78" stroke="#4ade80" stroke-width="1.2" stroke-linecap="round" opacity="0.4" />
  <path d="M110 63 Q112 72 114 79" stroke="#4ade80" stroke-width="1.2" stroke-linecap="round" opacity="0.4" />
</svg>
